<svg width="205" height="196" viewBox="0 0 205 196" fill="none" xmlns="http://www.w3.org/2000/svg">
    <g filter="url(#filter0_d_151_306)">
    <ellipse cx="101.92" cy="62.5966" rx="35.0481" ry="32.3583" fill="#CDF0EA"/>
    </g>
    <g filter="url(#filter1_d_151_306)">
    <ellipse cx="101.92" cy="62.5966" rx="35.0481" ry="32.3583" fill="#CDF0EA"/>
    </g>
    <g filter="url(#filter2_i_151_306)">
    <path d="M11.124 94.5562C80.9557 162.713 162.062 124.205 193.886 96.4319" stroke="#BEAEE2" stroke-width="11.9482" stroke-linecap="round"/>
    </g>
    <g filter="url(#filter3_i_151_306)">
    <path d="M11.124 94.5562C80.9557 162.713 162.062 124.205 193.886 96.4319" stroke="#BEAEE2" stroke-width="11.9482" stroke-linecap="round"/>
    </g>
    <path d="M68.9722 178.387H75.4716V179.494H68.9722V178.387ZM69.1127 184.061H76.5079V185.185H67.8128V172.889H76.2445V174.013H69.1127V184.061Z" fill="black"/>
    <path d="M84.0076 175.875C84.7571 175.875 85.4129 176.022 85.975 176.314C86.5488 176.595 86.9938 177.029 87.31 177.614C87.6379 178.2 87.8019 178.938 87.8019 179.828V185.185H86.5547V179.95C86.5547 178.978 86.3088 178.247 85.8169 177.755C85.3368 177.251 84.6576 176.999 83.7793 176.999C83.1235 176.999 82.5497 177.134 82.0578 177.403C81.5777 177.661 81.2029 178.042 80.9336 178.545C80.676 179.037 80.5471 179.634 80.5471 180.337V185.185H79.3V175.963H80.4944V178.493L80.3012 178.018C80.594 177.351 81.0624 176.83 81.7065 176.455C82.3506 176.068 83.1176 175.875 84.0076 175.875Z" fill="black"/>
    <path d="M96.9499 185.185V183.147L96.8972 182.814V179.406C96.8972 178.621 96.6747 178.018 96.2297 177.597C95.7964 177.175 95.1464 176.964 94.2798 176.964C93.6826 176.964 93.1146 177.064 92.5759 177.263C92.0373 177.462 91.5805 177.725 91.2058 178.053L90.6437 177.122C91.1121 176.724 91.6742 176.42 92.33 176.209C92.9858 175.986 93.6767 175.875 94.4028 175.875C95.5973 175.875 96.5166 176.174 97.1607 176.771C97.8164 177.357 98.1443 178.252 98.1443 179.459V185.185H96.9499ZM93.7704 185.273C93.0795 185.273 92.4764 185.162 91.9611 184.939C91.4576 184.705 91.0711 184.389 90.8018 183.991C90.5324 183.581 90.3978 183.112 90.3978 182.585C90.3978 182.105 90.509 181.672 90.7315 181.285C90.9657 180.887 91.3405 180.571 91.8557 180.337C92.3827 180.091 93.0854 179.968 93.9637 179.968H97.1431V180.899H93.9988C93.1088 180.899 92.4881 181.057 92.1368 181.373C91.7972 181.69 91.6274 182.082 91.6274 182.55C91.6274 183.077 91.8323 183.499 92.2422 183.815C92.6521 184.131 93.2259 184.289 93.9637 184.289C94.6663 184.289 95.2694 184.131 95.7729 183.815C96.2882 183.487 96.6629 183.019 96.8972 182.41L97.1782 183.27C96.944 183.879 96.5341 184.365 95.9486 184.728C95.3748 185.091 94.6487 185.273 93.7704 185.273Z" fill="black"/>
    <path d="M106.292 185.273C105.484 185.273 104.758 185.091 104.114 184.728C103.47 184.354 102.961 183.815 102.586 183.112C102.211 182.41 102.024 181.561 102.024 180.565C102.024 179.558 102.211 178.709 102.586 178.018C102.972 177.316 103.487 176.783 104.132 176.42C104.776 176.057 105.496 175.875 106.292 175.875C107.17 175.875 107.955 176.074 108.646 176.472C109.349 176.859 109.899 177.403 110.297 178.106C110.695 178.809 110.894 179.628 110.894 180.565C110.894 181.49 110.695 182.31 110.297 183.025C109.899 183.727 109.349 184.278 108.646 184.676C107.955 185.074 107.17 185.273 106.292 185.273ZM101.532 185.185V172.151H102.779V178.686L102.603 180.548L102.726 182.41V185.185H101.532ZM106.204 184.166C106.86 184.166 107.446 184.02 107.961 183.727C108.476 183.423 108.886 183.001 109.191 182.462C109.495 181.912 109.647 181.28 109.647 180.565C109.647 179.839 109.495 179.207 109.191 178.668C108.886 178.129 108.476 177.714 107.961 177.421C107.446 177.117 106.86 176.964 106.204 176.964C105.549 176.964 104.957 177.117 104.43 177.421C103.915 177.714 103.505 178.129 103.201 178.668C102.908 179.207 102.761 179.839 102.761 180.565C102.761 181.28 102.908 181.912 103.201 182.462C103.505 183.001 103.915 183.423 104.43 183.727C104.957 184.02 105.549 184.166 106.204 184.166Z" fill="black"/>
    <path d="M113.437 185.185V172.151H114.684V185.185H113.437Z" fill="black"/>
    <path d="M122.071 185.273C121.111 185.273 120.268 185.074 119.542 184.676C118.816 184.266 118.248 183.71 117.838 183.007C117.428 182.293 117.223 181.479 117.223 180.565C117.223 179.652 117.416 178.844 117.803 178.141C118.201 177.439 118.74 176.888 119.419 176.49C120.11 176.08 120.883 175.875 121.738 175.875C122.604 175.875 123.371 176.074 124.039 176.472C124.718 176.859 125.251 177.409 125.637 178.124C126.024 178.826 126.217 179.64 126.217 180.565C126.217 180.624 126.211 180.688 126.199 180.759C126.199 180.817 126.199 180.881 126.199 180.952H118.172V180.021H125.532L125.04 180.39C125.04 179.722 124.894 179.131 124.601 178.615C124.32 178.088 123.933 177.679 123.442 177.386C122.95 177.093 122.382 176.947 121.738 176.947C121.105 176.947 120.537 177.093 120.034 177.386C119.53 177.679 119.138 178.088 118.857 178.615C118.576 179.142 118.435 179.746 118.435 180.425V180.618C118.435 181.321 118.588 181.941 118.892 182.48C119.208 183.007 119.641 183.423 120.192 183.727C120.754 184.02 121.392 184.166 122.107 184.166C122.669 184.166 123.19 184.067 123.67 183.868C124.162 183.669 124.583 183.364 124.935 182.954L125.637 183.762C125.227 184.254 124.712 184.629 124.092 184.886C123.483 185.144 122.809 185.273 122.071 185.273Z" fill="black"/>
    <path d="M132.427 185.273C131.549 185.273 130.758 185.074 130.055 184.676C129.364 184.278 128.82 183.727 128.422 183.025C128.024 182.31 127.825 181.49 127.825 180.565C127.825 179.628 128.024 178.809 128.422 178.106C128.82 177.403 129.364 176.859 130.055 176.472C130.758 176.074 131.549 175.875 132.427 175.875C133.235 175.875 133.955 176.057 134.587 176.42C135.232 176.783 135.741 177.316 136.116 178.018C136.502 178.709 136.695 179.558 136.695 180.565C136.695 181.561 136.508 182.41 136.133 183.112C135.758 183.815 135.249 184.354 134.605 184.728C133.973 185.091 133.247 185.273 132.427 185.273ZM132.515 184.166C133.17 184.166 133.756 184.02 134.271 183.727C134.798 183.423 135.208 183.001 135.501 182.462C135.805 181.912 135.958 181.28 135.958 180.565C135.958 179.839 135.805 179.207 135.501 178.668C135.208 178.129 134.798 177.714 134.271 177.421C133.756 177.117 133.17 176.964 132.515 176.964C131.871 176.964 131.291 177.117 130.776 177.421C130.26 177.714 129.85 178.129 129.546 178.668C129.242 179.207 129.089 179.839 129.089 180.565C129.089 181.28 129.242 181.912 129.546 182.462C129.85 183.001 130.26 183.423 130.776 183.727C131.291 184.02 131.871 184.166 132.515 184.166ZM135.993 185.185V182.41L136.116 180.548L135.94 178.686V172.151H137.187V185.185H135.993Z" fill="black"/>
    <defs>
    <filter id="filter0_d_151_306" x="63.6861" y="30.2383" width="76.4686" height="71.089" filterUnits="userSpaceOnUse" color-interpolation-filters="sRGB">
    <feFlood flood-opacity="0" result="BackgroundImageFix"/>
    <feColorMatrix in="SourceAlpha" type="matrix" values="0 0 0 0 0 0 0 0 0 0 0 0 0 0 0 0 0 0 127 0" result="hardAlpha"/>
    <feOffset dy="3.18619"/>
    <feGaussianBlur stdDeviation="1.59309"/>
    <feComposite in2="hardAlpha" operator="out"/>
    <feColorMatrix type="matrix" values="0 0 0 0 0 0 0 0 0 0 0 0 0 0 0 0 0 0 0.25 0"/>
    <feBlend mode="normal" in2="BackgroundImageFix" result="effect1_dropShadow_151_306"/>
    <feBlend mode="normal" in="SourceGraphic" in2="effect1_dropShadow_151_306" result="shape"/>
    </filter>
    <filter id="filter1_d_151_306" x="63.6861" y="30.2383" width="76.4686" height="71.089" filterUnits="userSpaceOnUse" color-interpolation-filters="sRGB">
    <feFlood flood-opacity="0" result="BackgroundImageFix"/>
    <feColorMatrix in="SourceAlpha" type="matrix" values="0 0 0 0 0 0 0 0 0 0 0 0 0 0 0 0 0 0 127 0" result="hardAlpha"/>
    <feOffset dy="3.18619"/>
    <feGaussianBlur stdDeviation="1.59309"/>
    <feComposite in2="hardAlpha" operator="out"/>
    <feColorMatrix type="matrix" values="0 0 0 0 0 0 0 0 0 0 0 0 0 0 0 0 0 0 0.25 0"/>
    <feBlend mode="normal" in2="BackgroundImageFix" result="effect1_dropShadow_151_306"/>
    <feBlend mode="normal" in="SourceGraphic" in2="effect1_dropShadow_151_306" result="shape"/>
    </filter>
    <filter id="filter2_i_151_306" x="4.94928" y="88.7897" width="195.111" height="52.8539" filterUnits="userSpaceOnUse" color-interpolation-filters="sRGB">
    <feFlood flood-opacity="0" result="BackgroundImageFix"/>
    <feBlend mode="normal" in="SourceGraphic" in2="BackgroundImageFix" result="shape"/>
    <feColorMatrix in="SourceAlpha" type="matrix" values="0 0 0 0 0 0 0 0 0 0 0 0 0 0 0 0 0 0 127 0" result="hardAlpha"/>
    <feOffset dy="3.18619"/>
    <feGaussianBlur stdDeviation="1.59309"/>
    <feComposite in2="hardAlpha" operator="arithmetic" k2="-1" k3="1"/>
    <feColorMatrix type="matrix" values="0 0 0 0 0 0 0 0 0 0 0 0 0 0 0 0 0 0 0.25 0"/>
    <feBlend mode="normal" in2="shape" result="effect1_innerShadow_151_306"/>
    </filter>
    <filter id="filter3_i_151_306" x="4.94928" y="88.7897" width="195.111" height="52.8539" filterUnits="userSpaceOnUse" color-interpolation-filters="sRGB">
    <feFlood flood-opacity="0" result="BackgroundImageFix"/>
    <feBlend mode="normal" in="SourceGraphic" in2="BackgroundImageFix" result="shape"/>
    <feColorMatrix in="SourceAlpha" type="matrix" values="0 0 0 0 0 0 0 0 0 0 0 0 0 0 0 0 0 0 127 0" result="hardAlpha"/>
    <feOffset dy="3.18619"/>
    <feGaussianBlur stdDeviation="1.59309"/>
    <feComposite in2="hardAlpha" operator="arithmetic" k2="-1" k3="1"/>
    <feColorMatrix type="matrix" values="0 0 0 0 0 0 0 0 0 0 0 0 0 0 0 0 0 0 0.25 0"/>
    <feBlend mode="normal" in2="shape" result="effect1_innerShadow_151_306"/>
    </filter>
    </defs>
    </svg>