<svg width="204" height="224" viewBox="0 0 204 224" fill="none" xmlns="http://www.w3.org/2000/svg">
<g filter="url(#filter0_d_172_510)">
<ellipse cx="100.96" cy="74.4426" rx="35.0481" ry="32.3583" fill="#CDF0EA"/>
</g>
<g filter="url(#filter1_d_172_510)">
<ellipse cx="100.96" cy="74.4426" rx="35.0481" ry="32.3583" fill="#808080"/>
</g>
<g filter="url(#filter2_i_172_510)">
<path d="M10.1639 106.402C79.9956 174.559 161.102 136.051 192.926 108.278" stroke="#BEAEE2" stroke-width="11.9482" stroke-linecap="round"/>
</g>
<g filter="url(#filter3_i_172_510)">
<path d="M10.1639 106.402C79.9956 174.559 161.102 136.051 192.926 108.278" stroke="#808080" stroke-width="11.9482" stroke-linecap="round"/>
</g>
<path d="M63.5919 202.689V190.089H68.7219C70.0659 190.089 71.2419 190.359 72.2499 190.899C73.2699 191.427 74.0619 192.165 74.6259 193.113C75.1899 194.061 75.4719 195.153 75.4719 196.389C75.4719 197.625 75.1899 198.717 74.6259 199.665C74.0619 200.613 73.2699 201.357 72.2499 201.897C71.2419 202.425 70.0659 202.689 68.7219 202.689H63.5919ZM64.9239 201.537H68.6499C69.7659 201.537 70.7319 201.321 71.5479 200.889C72.3759 200.445 73.0179 199.839 73.4739 199.071C73.9299 198.291 74.1579 197.397 74.1579 196.389C74.1579 195.369 73.9299 194.475 73.4739 193.707C73.0179 192.939 72.3759 192.339 71.5479 191.907C70.7319 191.463 69.7659 191.241 68.6499 191.241H64.9239V201.537ZM78.193 202.689V193.239H79.471V202.689H78.193ZM78.841 191.151C78.577 191.151 78.355 191.061 78.175 190.881C77.995 190.701 77.905 190.485 77.905 190.233C77.905 189.981 77.995 189.771 78.175 189.603C78.355 189.423 78.577 189.333 78.841 189.333C79.105 189.333 79.327 189.417 79.507 189.585C79.687 189.753 79.777 189.963 79.777 190.215C79.777 190.479 79.687 190.701 79.507 190.881C79.339 191.061 79.117 191.151 78.841 191.151ZM85.565 202.779C84.785 202.779 84.047 202.671 83.351 202.455C82.655 202.227 82.109 201.945 81.713 201.609L82.289 200.601C82.673 200.889 83.165 201.141 83.765 201.357C84.365 201.561 84.995 201.663 85.655 201.663C86.555 201.663 87.203 201.525 87.599 201.249C87.995 200.961 88.193 200.583 88.193 200.115C88.193 199.767 88.079 199.497 87.851 199.305C87.635 199.101 87.347 198.951 86.987 198.855C86.627 198.747 86.225 198.657 85.781 198.585C85.337 198.513 84.893 198.429 84.449 198.333C84.017 198.237 83.621 198.099 83.261 197.919C82.901 197.727 82.607 197.469 82.379 197.145C82.163 196.821 82.055 196.389 82.055 195.849C82.055 195.333 82.199 194.871 82.487 194.463C82.775 194.055 83.195 193.737 83.747 193.509C84.311 193.269 84.995 193.149 85.799 193.149C86.411 193.149 87.023 193.233 87.635 193.401C88.247 193.557 88.751 193.767 89.147 194.031L88.589 195.057C88.169 194.769 87.719 194.565 87.239 194.445C86.759 194.313 86.279 194.247 85.799 194.247C84.947 194.247 84.317 194.397 83.909 194.697C83.513 194.985 83.315 195.357 83.315 195.813C83.315 196.173 83.423 196.455 83.639 196.659C83.867 196.863 84.161 197.025 84.521 197.145C84.893 197.253 85.295 197.343 85.727 197.415C86.171 197.487 86.609 197.577 87.041 197.685C87.485 197.781 87.887 197.919 88.247 198.099C88.619 198.267 88.913 198.513 89.129 198.837C89.357 199.149 89.471 199.563 89.471 200.079C89.471 200.631 89.315 201.111 89.003 201.519C88.703 201.915 88.259 202.227 87.671 202.455C87.095 202.671 86.393 202.779 85.565 202.779ZM97.738 202.689V200.601L97.684 200.259V196.767C97.684 195.963 97.456 195.345 97 194.913C96.556 194.481 95.89 194.265 95.002 194.265C94.39 194.265 93.808 194.367 93.256 194.571C92.704 194.775 92.236 195.045 91.852 195.381L91.276 194.427C91.756 194.019 92.332 193.707 93.004 193.491C93.676 193.263 94.384 193.149 95.128 193.149C96.352 193.149 97.294 193.455 97.954 194.067C98.626 194.667 98.962 195.585 98.962 196.821V202.689H97.738ZM94.48 202.779C93.772 202.779 93.154 202.665 92.626 202.437C92.11 202.197 91.714 201.873 91.438 201.465C91.162 201.045 91.024 200.565 91.024 200.025C91.024 199.533 91.138 199.089 91.366 198.693C91.606 198.285 91.99 197.961 92.518 197.721C93.058 197.469 93.778 197.343 94.678 197.343H97.936V198.297H94.714C93.802 198.297 93.166 198.459 92.806 198.783C92.458 199.107 92.284 199.509 92.284 199.989C92.284 200.529 92.494 200.961 92.914 201.285C93.334 201.609 93.922 201.771 94.678 201.771C95.398 201.771 96.016 201.609 96.532 201.285C97.06 200.949 97.444 200.469 97.684 199.845L97.972 200.727C97.732 201.351 97.312 201.849 96.712 202.221C96.124 202.593 95.38 202.779 94.48 202.779ZM107.311 202.779C106.483 202.779 105.739 202.593 105.079 202.221C104.419 201.837 103.897 201.285 103.513 200.565C103.129 199.845 102.937 198.975 102.937 197.955C102.937 196.923 103.129 196.053 103.513 195.345C103.909 194.625 104.437 194.079 105.097 193.707C105.757 193.335 106.495 193.149 107.311 193.149C108.211 193.149 109.015 193.353 109.723 193.761C110.443 194.157 111.007 194.715 111.415 195.435C111.823 196.155 112.027 196.995 112.027 197.955C112.027 198.903 111.823 199.743 111.415 200.475C111.007 201.195 110.443 201.759 109.723 202.167C109.015 202.575 108.211 202.779 107.311 202.779ZM102.433 202.689V189.333H103.711V196.029L103.531 197.937L103.657 199.845V202.689H102.433ZM107.221 201.645C107.893 201.645 108.493 201.495 109.021 201.195C109.549 200.883 109.969 200.451 110.281 199.899C110.593 199.335 110.749 198.687 110.749 197.955C110.749 197.211 110.593 196.563 110.281 196.011C109.969 195.459 109.549 195.033 109.021 194.733C108.493 194.421 107.893 194.265 107.221 194.265C106.549 194.265 105.943 194.421 105.403 194.733C104.875 195.033 104.455 195.459 104.143 196.011C103.843 196.563 103.693 197.211 103.693 197.955C103.693 198.687 103.843 199.335 104.143 199.899C104.455 200.451 104.875 200.883 105.403 201.195C105.943 201.495 106.549 201.645 107.221 201.645ZM114.632 202.689V189.333H115.91V202.689H114.632ZM123.48 202.779C122.496 202.779 121.632 202.575 120.888 202.167C120.144 201.747 119.562 201.177 119.142 200.457C118.722 199.725 118.512 198.891 118.512 197.955C118.512 197.019 118.71 196.191 119.106 195.471C119.514 194.751 120.066 194.187 120.762 193.779C121.47 193.359 122.262 193.149 123.138 193.149C124.026 193.149 124.812 193.353 125.496 193.761C126.192 194.157 126.738 194.721 127.134 195.453C127.53 196.173 127.728 197.007 127.728 197.955C127.728 198.015 127.722 198.081 127.71 198.153C127.71 198.213 127.71 198.279 127.71 198.351H119.484V197.397H127.026L126.522 197.775C126.522 197.091 126.372 196.485 126.072 195.957C125.784 195.417 125.388 194.997 124.884 194.697C124.38 194.397 123.798 194.247 123.138 194.247C122.49 194.247 121.908 194.397 121.392 194.697C120.876 194.997 120.474 195.417 120.186 195.957C119.898 196.497 119.754 197.115 119.754 197.811V198.009C119.754 198.729 119.91 199.365 120.222 199.917C120.546 200.457 120.99 200.883 121.554 201.195C122.13 201.495 122.784 201.645 123.516 201.645C124.092 201.645 124.626 201.543 125.118 201.339C125.622 201.135 126.054 200.823 126.414 200.403L127.134 201.231C126.714 201.735 126.186 202.119 125.55 202.383C124.926 202.647 124.236 202.779 123.48 202.779ZM134.092 202.779C133.192 202.779 132.382 202.575 131.662 202.167C130.954 201.759 130.396 201.195 129.988 200.475C129.58 199.743 129.376 198.903 129.376 197.955C129.376 196.995 129.58 196.155 129.988 195.435C130.396 194.715 130.954 194.157 131.662 193.761C132.382 193.353 133.192 193.149 134.092 193.149C134.92 193.149 135.658 193.335 136.306 193.707C136.966 194.079 137.488 194.625 137.872 195.345C138.268 196.053 138.466 196.923 138.466 197.955C138.466 198.975 138.274 199.845 137.89 200.565C137.506 201.285 136.984 201.837 136.324 202.221C135.676 202.593 134.932 202.779 134.092 202.779ZM134.182 201.645C134.854 201.645 135.454 201.495 135.982 201.195C136.522 200.883 136.942 200.451 137.242 199.899C137.554 199.335 137.71 198.687 137.71 197.955C137.71 197.211 137.554 196.563 137.242 196.011C136.942 195.459 136.522 195.033 135.982 194.733C135.454 194.421 134.854 194.265 134.182 194.265C133.522 194.265 132.928 194.421 132.4 194.733C131.872 195.033 131.452 195.459 131.14 196.011C130.828 196.563 130.672 197.211 130.672 197.955C130.672 198.687 130.828 199.335 131.14 199.899C131.452 200.451 131.872 200.883 132.4 201.195C132.928 201.495 133.522 201.645 134.182 201.645ZM137.746 202.689V199.845L137.872 197.937L137.692 196.029V189.333H138.97V202.689H137.746Z" fill="black"/>
<defs>
<filter id="filter0_d_172_510" x="62.726" y="42.0844" width="76.4686" height="71.089" filterUnits="userSpaceOnUse" color-interpolation-filters="sRGB">
<feFlood flood-opacity="0" result="BackgroundImageFix"/>
<feColorMatrix in="SourceAlpha" type="matrix" values="0 0 0 0 0 0 0 0 0 0 0 0 0 0 0 0 0 0 127 0" result="hardAlpha"/>
<feOffset dy="3.18619"/>
<feGaussianBlur stdDeviation="1.59309"/>
<feComposite in2="hardAlpha" operator="out"/>
<feColorMatrix type="matrix" values="0 0 0 0 0 0 0 0 0 0 0 0 0 0 0 0 0 0 0.25 0"/>
<feBlend mode="normal" in2="BackgroundImageFix" result="effect1_dropShadow_172_510"/>
<feBlend mode="normal" in="SourceGraphic" in2="effect1_dropShadow_172_510" result="shape"/>
</filter>
<filter id="filter1_d_172_510" x="62.726" y="42.0844" width="76.4686" height="71.089" filterUnits="userSpaceOnUse" color-interpolation-filters="sRGB">
<feFlood flood-opacity="0" result="BackgroundImageFix"/>
<feColorMatrix in="SourceAlpha" type="matrix" values="0 0 0 0 0 0 0 0 0 0 0 0 0 0 0 0 0 0 127 0" result="hardAlpha"/>
<feOffset dy="3.18619"/>
<feGaussianBlur stdDeviation="1.59309"/>
<feComposite in2="hardAlpha" operator="out"/>
<feColorMatrix type="matrix" values="0 0 0 0 0 0 0 0 0 0 0 0 0 0 0 0 0 0 0.25 0"/>
<feBlend mode="normal" in2="BackgroundImageFix" result="effect1_dropShadow_172_510"/>
<feBlend mode="normal" in="SourceGraphic" in2="effect1_dropShadow_172_510" result="shape"/>
</filter>
<filter id="filter2_i_172_510" x="3.9892" y="100.636" width="195.111" height="52.8539" filterUnits="userSpaceOnUse" color-interpolation-filters="sRGB">
<feFlood flood-opacity="0" result="BackgroundImageFix"/>
<feBlend mode="normal" in="SourceGraphic" in2="BackgroundImageFix" result="shape"/>
<feColorMatrix in="SourceAlpha" type="matrix" values="0 0 0 0 0 0 0 0 0 0 0 0 0 0 0 0 0 0 127 0" result="hardAlpha"/>
<feOffset dy="3.18619"/>
<feGaussianBlur stdDeviation="1.59309"/>
<feComposite in2="hardAlpha" operator="arithmetic" k2="-1" k3="1"/>
<feColorMatrix type="matrix" values="0 0 0 0 0 0 0 0 0 0 0 0 0 0 0 0 0 0 0.25 0"/>
<feBlend mode="normal" in2="shape" result="effect1_innerShadow_172_510"/>
</filter>
<filter id="filter3_i_172_510" x="3.9892" y="100.636" width="195.111" height="52.8539" filterUnits="userSpaceOnUse" color-interpolation-filters="sRGB">
<feFlood flood-opacity="0" result="BackgroundImageFix"/>
<feBlend mode="normal" in="SourceGraphic" in2="BackgroundImageFix" result="shape"/>
<feColorMatrix in="SourceAlpha" type="matrix" values="0 0 0 0 0 0 0 0 0 0 0 0 0 0 0 0 0 0 127 0" result="hardAlpha"/>
<feOffset dy="3.18619"/>
<feGaussianBlur stdDeviation="1.59309"/>
<feComposite in2="hardAlpha" operator="arithmetic" k2="-1" k3="1"/>
<feColorMatrix type="matrix" values="0 0 0 0 0 0 0 0 0 0 0 0 0 0 0 0 0 0 0.25 0"/>
<feBlend mode="normal" in2="shape" result="effect1_innerShadow_172_510"/>
</filter>
</defs>
</svg>
